<?xml version="1.0" encoding="UTF-8"?><svg id="_レイヤー_1" xmlns="http://www.w3.org/2000/svg" viewBox="0 0 694.16 163.2"><defs><style>.cls-1{fill:#1a1919;}.cls-2{fill:#488389;}</style></defs><path class="cls-1" d="M666.44,82.12v78h-18.98v-45.5c0-4.64-10.65,2.94-11.61,3.38-25.7,11.58-50.89,12.3-76.99,1.3-2.99-1.26-9-5.46-11.03-5.99-1.37-.35-3.28.4-3.28,1.32v44l-1.5,1.5h-16.99l-1.5-1.5v-76.5h18.48c.49,0,5.67,5.88,7.02,6.97,27.91,22.71,60.22,25.31,88.87,2,1.64-1.34,8.39-8.97,9.02-8.97h18.48Z"/><path class="cls-1" d="M141.88,82.12v76.5l-1.5,1.5h-17.49v-43.5c0-.78-2.02-3.55-3.47-3.54-.82,0-11.39,6.21-13.84,7.22-19.58,8.09-42.61,8.86-62.84,2.54-8.01-2.5-14.88-7.79-22.72-9.68.15.92-1.05,2.12-1.05,2.47v44.5H1.5l-1.5-1.5v-76.5h18.48c.64,0,7.38,7.63,9.02,8.97,28.74,23.39,60.89,20.77,88.87-2,1.35-1.1,6.53-6.97,7.02-6.97h18.48Z"/><path class="cls-1" d="M251.59,54.42c22.28-2.01,48.32,6.83,55.1,30.26,10.03,34.7-20.4,56.94-52.44,55.48-61.1-2.78-63.88-80.23-2.66-85.74ZM255.61,71.39c-41.72,2.48-32.41,59.81,10.42,50.48,32.82-7.15,25.28-52.6-10.42-50.48Z"/><path class="cls-1" d="M404.46,77.42c32.96-3.25,61.38,14.57,55.7,50.75-3.4,21.67-28.09,33.98-48.02,34.94-65.33,3.13-71.56-79.39-7.69-85.69ZM407.44,94.41c-36.69,3.53-34.02,51.39,2.55,51.33,40.94-.07,38.51-55.28-2.55-51.33Z"/><path class="cls-2" d="M671.17.37c28.93-4.86,31.27,40.22,2.92,39.38-23.91-.71-25.64-35.56-2.92-39.38Z"/></svg>